<svg width="26" height="26" viewBox="0 0 26 26" fill="none" xmlns="http://www.w3.org/2000/svg">
<g clip-path="url(#clip0)">
<path d="M5.9165 16.0335V15.5335H5.4165H3.24984C3.09513 15.5335 2.94675 15.4721 2.83736 15.3627C2.72796 15.2533 2.6665 15.1049 2.6665 14.9502V11.0502C2.6665 10.8955 2.72796 10.7471 2.83736 10.6377C2.94675 10.5283 3.09513 10.4669 3.24984 10.4669H5.4165H5.9165V9.96686V8.13693C5.98914 6.62254 6.65691 5.19791 7.77475 4.17321C8.89537 3.14598 10.3771 2.60424 11.896 2.66644L11.9063 2.66686H11.9165H15.1665C15.3212 2.66686 15.4696 2.72832 15.579 2.83772C15.6884 2.94711 15.7498 3.09548 15.7498 3.2502V7.1502C15.7498 7.30491 15.6884 7.45328 15.579 7.56268C15.4696 7.67207 15.3212 7.73353 15.1665 7.73353H11.9165H11.4165V8.23353V9.96686V10.4669H11.9165L15.1665 10.4669L15.1703 10.4668C15.2604 10.4662 15.3494 10.4864 15.4303 10.5258C15.5104 10.5648 15.5804 10.6216 15.635 10.6919C15.6884 10.7638 15.7244 10.8469 15.7404 10.935L16.2324 10.8456L15.7404 10.935C15.7566 11.0241 15.7519 11.1158 15.7265 11.2027L15.7265 11.2027L15.7247 11.2089L14.6416 15.108C14.6416 15.1082 14.6416 15.1083 14.6415 15.1084C14.6062 15.2345 14.5295 15.3449 14.4238 15.4221C14.318 15.4993 14.1892 15.5387 14.0583 15.5339L14.0491 15.5335H14.0398H11.9165H11.4165V16.0335V22.7502C11.4165 22.9049 11.355 23.0533 11.2456 23.1627C11.1363 23.2721 10.9879 23.3335 10.8332 23.3335H6.49984C6.34513 23.3335 6.19675 23.2721 6.08736 23.1627C5.97796 23.0533 5.9165 22.9049 5.9165 22.7502V16.0335ZM7.08317 21.6669V22.1669H7.58317H9.74984H10.2498V21.6669V14.9502C10.2498 14.7955 10.3113 14.6471 10.4207 14.5377C10.5301 14.4283 10.6785 14.3669 10.8332 14.3669H13.2598H13.6409L13.7419 13.9994L14.2186 12.2661L14.3926 11.6335H13.7365H10.8332C10.6785 11.6335 10.5301 11.5721 10.4207 11.4627C10.3113 11.3533 10.2498 11.2049 10.2498 11.0502V8.13852C10.274 7.71544 10.4584 7.31727 10.7659 7.0252C11.0762 6.73044 11.4879 6.56633 11.9159 6.56686H11.9165H14.0832H14.5832V6.06686V4.33353V3.83353H14.0832H11.9313C10.7293 3.7644 9.54801 4.16979 8.64165 4.96286C7.73136 5.75937 7.17184 6.88268 7.08448 8.08909L7.08317 8.10712V8.1252V11.0502C7.08317 11.2049 7.02171 11.3533 6.91232 11.4627C6.80292 11.5721 6.65455 11.6335 6.49984 11.6335H4.33317H3.83317V12.1335V13.8669V14.3669H4.33317H6.49984C6.65455 14.3669 6.80292 14.4283 6.91232 14.5377C7.02171 14.6471 7.08317 14.7955 7.08317 14.9502V21.6669Z" fill="white" stroke="white"/>
</g>
<defs>
<clipPath id="clip0">
<rect width="26" height="26" fill="white"/>
</clipPath>
</defs>
</svg>
