<svg width="50" height="50" viewBox="0 0 50 50" fill="none" xmlns="http://www.w3.org/2000/svg">
<circle cx="25" cy="25" r="25" transform="rotate(-180 25 25)" fill="#ED8E99"/>
<circle cx="25" cy="25" r="25" transform="rotate(-180 25 25)" fill="url(#paint0_linear)"/>
<path fill-rule="evenodd" clip-rule="evenodd" d="M10.8345 4.39781C11.0054 4.28009 11.1778 4.16444 11.3517 4.0509L38.8951 4.21387C39.0676 4.32946 39.2387 4.44715 39.4082 4.56689L10.8345 4.39781ZM9.00355 5.787C8.84693 5.91754 8.69193 6.04996 8.53859 6.18423L41.6831 6.38035C41.5313 6.24427 41.3779 6.11003 41.2228 5.97765L9.00355 5.787ZM6.46775 8.22029C6.60391 8.07 6.74187 7.92138 6.8816 7.77445L43.3214 7.99007C43.4543 8.13311 43.5855 8.2777 43.715 8.42383L6.46775 8.22029ZM4.98916 10.0122C4.86831 10.1733 4.74936 10.3359 4.63235 10.5H45.368C45.3039 10.4102 45.2393 10.3208 45.1741 10.2318L4.98916 10.0122ZM3.1044 12.925C3.18316 12.7825 3.26328 12.6408 3.34473 12.5H46.6556C46.7371 12.6408 46.8172 12.7825 46.896 12.925H3.1044ZM2.02619 15.125C1.97617 15.2412 1.927 15.3579 1.8787 15.475H48.1216C48.0733 15.3579 48.0242 15.2412 47.9742 15.125H2.02619ZM0.915074 18.275C0.952351 18.1412 0.990712 18.0079 1.03015 17.875H48.9702C49.0096 18.0079 49.048 18.1412 49.0853 18.275H0.915074ZM0.338882 20.875C0.314051 21.0246 0.290549 21.1746 0.268386 21.325H49.732C49.7098 21.1746 49.6863 21.0246 49.6615 20.875H0.338882ZM0.00292969 24.625C0.0053874 24.4579 0.00948276 24.2913 0.0152016 24.125H49.9851C49.9909 24.2913 49.995 24.4579 49.9974 24.625H0.00292969ZM0.13634 27.625C0.146794 27.7252 0.157838 27.8252 0.169471 27.925H49.8309C49.8425 27.8252 49.8536 27.7252 49.864 27.625H0.13634ZM0.846821 31.475C0.815713 31.3587 0.785424 31.242 0.755959 31.125H49.2444C49.2149 31.242 49.1846 31.3587 49.1535 31.475H0.846821ZM2.02619 34.875C2.08384 35.0089 2.14262 35.1423 2.20254 35.275H47.7978C47.8577 35.1423 47.9165 35.0089 47.9742 34.875H2.02619ZM4.50867 39.325C4.40444 39.1762 4.30179 39.0262 4.20075 38.875H45.7996C45.6986 39.0262 45.5959 39.1762 45.4917 39.325H4.50867ZM7.78138 43.125C7.95952 43.2943 8.14015 43.461 8.32321 43.625H41.6771C41.8602 43.461 42.0408 43.2943 42.219 43.125H7.78138ZM16.2475 48.425C15.6023 48.1838 14.9697 47.9167 14.351 47.625H35.6493C35.0306 47.9167 34.398 48.1838 33.7528 48.425H16.2475ZM36.8883 3.00198L13.3727 2.86283C13.5651 2.76154 13.7591 2.66268 13.9544 2.56629L36.3101 2.69858C36.5043 2.79726 36.697 2.89841 36.8883 3.00198ZM18.7234 0.794504L31.5637 0.870481C29.472 0.30289 27.2715 0 25.0002 0C22.8324 0 20.7291 0.275901 18.7234 0.794504Z" fill="#EFD970"/>
<path fill-rule="evenodd" clip-rule="evenodd" d="M10.8345 4.39781C11.0054 4.28009 11.1778 4.16444 11.3517 4.0509L38.8951 4.21387C39.0676 4.32946 39.2387 4.44715 39.4082 4.56689L10.8345 4.39781ZM9.00355 5.787C8.84693 5.91754 8.69193 6.04996 8.53859 6.18423L41.6831 6.38035C41.5313 6.24427 41.3779 6.11003 41.2228 5.97765L9.00355 5.787ZM6.46775 8.22029C6.60391 8.07 6.74187 7.92138 6.8816 7.77445L43.3214 7.99007C43.4543 8.13311 43.5855 8.2777 43.715 8.42383L6.46775 8.22029ZM4.98916 10.0122C4.86831 10.1733 4.74936 10.3359 4.63235 10.5H45.368C45.3039 10.4102 45.2393 10.3208 45.1741 10.2318L4.98916 10.0122ZM3.1044 12.925C3.18316 12.7825 3.26328 12.6408 3.34473 12.5H46.6556C46.7371 12.6408 46.8172 12.7825 46.896 12.925H3.1044ZM2.02619 15.125C1.97617 15.2412 1.927 15.3579 1.8787 15.475H48.1216C48.0733 15.3579 48.0242 15.2412 47.9742 15.125H2.02619ZM0.915074 18.275C0.952351 18.1412 0.990712 18.0079 1.03015 17.875H48.9702C49.0096 18.0079 49.048 18.1412 49.0853 18.275H0.915074ZM0.338882 20.875C0.314051 21.0246 0.290549 21.1746 0.268386 21.325H49.732C49.7098 21.1746 49.6863 21.0246 49.6615 20.875H0.338882ZM0.00292969 24.625C0.0053874 24.4579 0.00948276 24.2913 0.0152016 24.125H49.9851C49.9909 24.2913 49.995 24.4579 49.9974 24.625H0.00292969ZM0.13634 27.625C0.146794 27.7252 0.157838 27.8252 0.169471 27.925H49.8309C49.8425 27.8252 49.8536 27.7252 49.864 27.625H0.13634ZM0.846821 31.475C0.815713 31.3587 0.785424 31.242 0.755959 31.125H49.2444C49.2149 31.242 49.1846 31.3587 49.1535 31.475H0.846821ZM2.02619 34.875C2.08384 35.0089 2.14262 35.1423 2.20254 35.275H47.7978C47.8577 35.1423 47.9165 35.0089 47.9742 34.875H2.02619ZM4.50867 39.325C4.40444 39.1762 4.30179 39.0262 4.20075 38.875H45.7996C45.6986 39.0262 45.5959 39.1762 45.4917 39.325H4.50867ZM7.78138 43.125C7.95952 43.2943 8.14015 43.461 8.32321 43.625H41.6771C41.8602 43.461 42.0408 43.2943 42.219 43.125H7.78138ZM16.2475 48.425C15.6023 48.1838 14.9697 47.9167 14.351 47.625H35.6493C35.0306 47.9167 34.398 48.1838 33.7528 48.425H16.2475ZM36.8883 3.00198L13.3727 2.86283C13.5651 2.76154 13.7591 2.66268 13.9544 2.56629L36.3101 2.69858C36.5043 2.79726 36.697 2.89841 36.8883 3.00198ZM18.7234 0.794504L31.5637 0.870481C29.472 0.30289 27.2715 0 25.0002 0C22.8324 0 20.7291 0.275901 18.7234 0.794504Z" fill="url(#paint1_linear)"/>
<defs>
<linearGradient id="paint0_linear" x1="25" y1="0" x2="25" y2="50" gradientUnits="userSpaceOnUse">
<stop stop-color="#792457"/>
<stop offset="1" stop-color="white" stop-opacity="0"/>
</linearGradient>
<linearGradient id="paint1_linear" x1="25.0002" y1="50" x2="25.0002" y2="0" gradientUnits="userSpaceOnUse">
<stop stop-color="#EBBC40"/>
<stop offset="1" stop-color="white" stop-opacity="0"/>
</linearGradient>
</defs>
</svg>
