<svg width="24" height="24" viewBox="0 0 24 24" fill="none" xmlns="http://www.w3.org/2000/svg">
<path d="M14.0572 5.64586L13.1992 6.50019H14.41H18C18.663 6.50019 19.2989 6.76358 19.7678 7.23242C20.2366 7.70126 20.5 8.33714 20.5 9.00019V19.0002C20.5 19.6632 20.2366 20.2991 19.7678 20.768C19.2989 21.2368 18.663 21.5002 18 21.5002H6C5.33696 21.5002 4.70107 21.2368 4.23223 20.768C3.76339 20.2991 3.5 19.6632 3.5 19.0002V9.00019C3.5 8.33714 3.76339 7.70126 4.23223 7.23242C4.70107 6.76358 5.33696 6.50019 6 6.50019H9.59H10.8008L9.94278 5.64586L7.64355 3.35663C7.64346 3.35654 7.64337 3.35644 7.64327 3.35635C7.5966 3.3096 7.55956 3.25413 7.53428 3.19309C7.50895 3.13193 7.49591 3.06638 7.49591 3.00019C7.49591 2.86649 7.54902 2.73827 7.64355 2.64374C7.69036 2.59693 7.74593 2.5598 7.80709 2.53447C7.86825 2.50913 7.9338 2.49609 8 2.49609C8.0662 2.49609 8.13175 2.50913 8.19291 2.53447C8.25395 2.55975 8.30943 2.59679 8.35619 2.64348C8.35627 2.64357 8.35636 2.64365 8.35645 2.64374L11.6459 5.9432L12 6.29837L12.3541 5.9432L15.6436 2.64374C15.6437 2.64362 15.6438 2.64351 15.6439 2.64339C15.7384 2.54907 15.8665 2.49609 16 2.49609C16.0662 2.49609 16.1317 2.50913 16.1929 2.53447C16.2541 2.5598 16.3096 2.59693 16.3564 2.64374C16.4033 2.69055 16.4404 2.74612 16.4657 2.80728C16.4911 2.86844 16.5041 2.93399 16.5041 3.00019C16.5041 3.06638 16.4911 3.13193 16.4657 3.19309C16.4404 3.25412 16.4034 3.30958 16.3567 3.35633C16.3566 3.35643 16.3565 3.35653 16.3564 3.35663L14.0572 5.64586ZM19.0607 20.0608C19.342 19.7795 19.5 19.398 19.5 19.0002V9.00019C19.5 8.60236 19.342 8.22083 19.0607 7.93953C18.7794 7.65822 18.3978 7.50019 18 7.50019H6C5.60217 7.50019 5.22064 7.65822 4.93934 7.93953C4.65804 8.22083 4.5 8.60236 4.5 9.00019V19.0002C4.5 19.398 4.65804 19.7795 4.93934 20.0608C5.22065 20.3422 5.60218 20.5002 6 20.5002H18C18.3978 20.5002 18.7794 20.3422 19.0607 20.0608Z" fill="white" stroke="white"/>
</svg>
