<svg width="28" height="28" viewBox="0 0 28 28" fill="none" xmlns="http://www.w3.org/2000/svg">
<path d="M9.94822 22.8338L9.93821 22.8334H9.9282H9.83708C8.03171 22.8173 6.25248 22.4001 4.62813 21.6119L4.62815 21.6119L4.62244 21.6092C4.4079 21.5084 4.23126 21.3416 4.11836 21.1332L3.67872 21.3713L4.11836 21.1332C4.0059 20.9256 3.96259 20.6875 3.99468 20.4537C4.03112 20.2161 4.14139 19.996 4.30992 19.8246C4.47729 19.6543 4.69366 19.5407 4.9287 19.4995C6.04149 19.3497 7.11192 18.9739 8.0742 18.3953L8.69719 18.0206L8.1245 17.5729C6.62192 16.3981 5.46515 14.8387 4.77679 13.0599C4.08842 11.2812 3.8941 9.3493 4.21443 7.46908L4.21457 7.4691L4.2163 7.45726C4.24796 7.24016 4.34132 7.03672 4.48529 6.87116C4.62925 6.7056 4.81775 6.58489 5.02835 6.52339L5.02838 6.52349L5.03801 6.52047C5.23893 6.45737 5.45395 6.45467 5.65639 6.51271C5.85479 6.5696 6.03253 6.68237 6.16847 6.83744C6.88944 7.77932 7.79399 8.56525 8.82745 9.14763C9.86546 9.73257 11.0118 10.0999 12.1964 10.2272L12.7287 10.2844L12.7495 9.7495C12.7978 8.5059 13.3322 7.33092 14.2378 6.47728L14.2378 6.47729L14.2407 6.47457C14.6926 6.04186 15.226 5.70341 15.81 5.47894C16.394 5.25448 17.0169 5.14848 17.6422 5.16714C18.2676 5.18579 18.883 5.32872 19.4526 5.58759C20.0222 5.84647 20.5345 6.21611 20.9598 6.67498L20.9767 6.69323L20.9954 6.7097C21.1929 6.88438 21.4384 6.9957 21.7 7.02924C21.9588 7.06242 22.2215 7.01796 22.4549 6.90163C22.646 6.81266 22.8583 6.77933 23.0675 6.8055C23.2786 6.83192 23.4778 6.91781 23.642 7.05316L23.9601 6.66742L23.642 7.05316C23.8061 7.18851 23.9283 7.36774 23.9944 7.56994C24.0605 7.77214 24.0678 7.98897 24.0153 8.19512L24.0153 8.19512L24.014 8.20048C23.7622 9.23762 23.2852 10.2066 22.6167 11.0386L22.5148 11.1655L22.5071 11.3281C22.3559 14.5151 20.9508 17.5131 18.5982 19.6685C16.2456 21.8238 13.1363 22.9616 9.94822 22.8338ZM9.9282 21.5001H10.013C11.4327 21.5478 12.8478 21.3138 14.1766 20.8115C15.508 20.3083 16.7264 19.5457 17.761 18.568C18.7955 17.5904 19.6257 16.4171 20.2034 15.1162C20.78 13.8177 21.0937 12.418 21.1262 10.9977C21.1407 10.749 21.244 10.5137 21.4174 10.3346L21.4349 10.3165L21.4505 10.2967C21.7586 9.90675 22.0213 9.48303 22.2336 9.03371L22.5715 8.3186L21.7806 8.3201C21.4306 8.32077 21.0845 8.24757 20.7648 8.1053C20.4451 7.96302 20.159 7.75487 19.9253 7.49445L19.9156 7.48363L19.9052 7.47339C19.5881 7.15887 19.2113 6.9108 18.797 6.74369C18.3859 6.57783 17.946 6.49503 17.5028 6.50003C17.0564 6.48979 16.6123 6.56716 16.1956 6.72778C15.776 6.88954 15.3924 7.13253 15.0669 7.44284C14.6286 7.85888 14.3073 8.3827 14.1349 8.96191C13.9628 9.5406 13.9454 10.1543 14.0845 10.7418L14.2574 11.4995L13.4758 11.5529L13.4758 11.5529L13.4692 11.5534C12.1427 11.6616 10.8086 11.4801 9.55913 11.0216C8.3097 10.5631 7.17486 9.83852 6.2332 8.898L5.41222 8.07801L5.38005 9.23791C5.33491 10.8662 5.74222 12.475 6.5567 13.8856C7.3703 15.2947 8.55833 16.4508 9.98896 17.2257L10.6153 17.5817L10.2012 18.1732C9.46748 19.1322 8.46382 19.85 7.31903 20.2344L5.69985 20.7782L7.35663 21.1934C8.19422 21.4034 9.055 21.5064 9.91846 21.5001H9.9282Z" fill="white" stroke="white"/>
</svg>
